<svg xmlns="http://www.w3.org/2000/svg" width="430" height="430" style="width:100%;height:100%;transform:translate3d(0,0,0);content-visibility:visible" viewBox="0 0 430 430"><defs><clipPath id="a"><path d="M0 0h430v430H0z"/></clipPath><clipPath id="c"><path d="M0 0h430v430H0z"/></clipPath><clipPath id="e"><path d="M0 0h430v430H0z"/></clipPath><clipPath id="d"><path d="M0 0h430v430H0z"/></clipPath><clipPath id="b"><path d="M0 0h430v430H0z"/></clipPath></defs><g clip-path="url(#a)"><g clip-path="url(#b)" style="display:block"><g style="display:block"><path fill="#EBE6EF" d="M139.121 199.536v18.384h-16.497v104.846a3 3 0 0 0 3 3h80.029v-126.23h-66.532z" class="secondary"/><path fill="none" stroke="#3A3347" stroke-linecap="round" stroke-linejoin="round" stroke-width="7" d="M303.127 174.05h65.686v25.486m0-25.729v-17.826" class="primary"/><path fill="#EBE6EF" d="M320.119 325.766h81.716V202.53a2.997 2.997 0 0 0-3-2.994h-78.716" class="secondary"/><path fill="#EBE6EF" d="M320.681 199.536H203.777v126.23h116.904v-126.23z" class="secondary"/><path fill="#EBE6EF" d="M-139.606-22.659h279.212v42.318a3 3 0 0 1-3 3h-273.212a3 3 0 0 1-3-3v-42.318z" class="secondary" opacity=".5" style="mix-blend-mode:multiply" transform="translate(262.229 303.108)"/><path fill="#EBE6EF" d="M300.143 151.291h-75.828a3 3 0 0 0-3 3v46.916h81.828v-46.916a3 3 0 0 0-3-3zm-64.667 0v-72.03h53.506v72.03" class="secondary"/><path fill="#EBE6EF" d="M16.503 29.217h-33.006a3 3 0 0 1-3-3V-9.714c0-10.771 8.732-19.503 19.503-19.503s19.503 8.732 19.503 19.503v35.931a3 3 0 0 1-3 3z" class="secondary" style="mix-blend-mode:multiply" transform="translate(262.229 201.254)"/><path fill="#EBE6EF" d="M-23.943 35.87v-47.796C-23.943-25.15-13.224-35.87 0-35.87c13.224 0 23.943 10.72 23.943 23.944V35.87" class="secondary" style="mix-blend-mode:multiply" transform="translate(262.229 289.897)"/><path fill="none" stroke="#EBE6EF" stroke-linecap="round" stroke-linejoin="round" stroke-width="7" d="M238.759 79.262v-16.92m46.851 16.92v-16.92m-14.463 16.919v-24.67m-17.836 24.67v-24.67" class="secondary"/><path fill="none" stroke="#3A3347" stroke-linecap="round" stroke-linejoin="round" stroke-width="7" d="M253.789 99.883v30.228m16.88-30.228v30.228" class="primary"/><path fill="none" stroke="#3A3347" stroke-linejoin="round" stroke-width="7" d="M401.835 280.449H122.623" class="primary"/><path fill="none" stroke="#3A3347" stroke-linecap="round" stroke-linejoin="round" stroke-width="7" d="M162.847 230.471v29.286m18.941-29.286v29.286m-18.94 47.751v18.258m18.941-18.258v18.258m160.979-95.295v29.286m18.941-29.286v29.286m18.941-29.286v29.286" class="primary"/><path fill="#3A3347" d="M147.407 325.767v-18.26a3.5 3.5 0 1 0-7 0v18.26h7zm118.322 0v-45.318a3.5 3.5 0 1 0-7 0v45.318h7zm118.421 0v-18.016a3.5 3.5 0 1 0-7 0v18.016h7zm-18.941 0v-18.016a3.5 3.5 0 1 0-7 0v18.016h7zm-18.941 0v-18.016a3.5 3.5 0 1 0-7 0v18.016h7z" class="primary"/></g><g style="display:block"><path fill="#B26836" d="M155.071 181.065v57.456c0 9.169-5.433 17.536-13.892 21.075-13.043 5.456-21.822 2.316-21.822 2.316-1.37 40.31-29.027 53.414-29.027 53.414 9.375 23.858-11.804 39.233-11.804 39.233h.13a20.672 20.672 0 0 1 20.392 17.242c.302 1.804-1.144 3.433-2.973 3.433H51.416a3 3 0 0 1-2.925-3.663l3.811-16.822a2.994 2.994 0 0 0-.464-2.378l-19.276-26.88c-18.309-31.508 20.174-73.648 28.185-81.888.833-.857 1.054-2.126.6-3.232-5.436-13.241 3.372-24.211 7.111-28.067a2.968 2.968 0 0 0 .538-3.393c-1.943-3.903-6.08-13.472-7.021-25.778-.113-1.473-1.266-2.682-2.741-2.765a10.362 10.362 0 0 1-1.496-.196c-5.386-1.101-8.863-6.253-7.788-11.517 1.084-5.256 6.305-9.167 11.691-8.057a9.928 9.928 0 0 1 1.915.59c1.211.513 2.641.171 3.462-.856 4.066-5.083 9.829-7.98 14.639-8.589 4.294-.545 8.442 1.938 10.507 3.444a3.012 3.012 0 0 0 3.032.317l9.704-4.438c5.507-2.515 12.029-.347 14.934 4.961l3.088 6.184-13.506 11.464c-.796.676-.892 1.837-.284 2.686 4.414 6.163 3.187 15.285 2.612 18.33-.123.651.106 1.303.573 1.773 6.871 6.913 7.049 19.873 7.049 19.873 13.356 2.316 17.432-6.973 17.432-6.973v-10.025c0-5.047 2.047-9.619 5.351-12.923a18.222 18.222 0 0 1 12.922-5.351z" class="tertiary"/><g opacity=".5" style="mix-blend-mode:multiply"><path fill="#B26836" d="M80.578 163.467c2.612-4.083 6.293-7.563 10.029-9.32-2.255-1.375-5.555-2.836-8.949-2.405-4.81.609-10.574 3.507-14.64 8.59-.821 1.027-2.25 1.369-3.461.856a9.938 9.938 0 0 0-1.916-.59c-5.386-1.11-10.606 2.801-11.69 8.056-1.075 5.265 2.402 10.416 7.787 11.518.502.103 1.002.167 1.497.195 1.474.083 2.627 1.292 2.74 2.764.941 12.307 5.078 21.877 7.021 25.78a2.968 2.968 0 0 1-.537 3.393c-3.739 3.856-12.547 14.826-7.111 28.067.454 1.106.233 2.375-.6 3.232-8.011 8.24-46.495 50.379-28.186 81.887l19.276 26.88a3 3 0 0 1 .465 2.379l-3.812 16.822a3 3 0 0 0 2.926 3.663h11.375l4.511-19.906a3 3 0 0 0-.465-2.379l-19.276-26.88c-18.311-31.51 20.181-73.654 28.188-81.889a2.98 2.98 0 0 0 .603-3.216c-5.443-13.236 3.351-24.204 7.096-28.071a2.988 2.988 0 0 0 .541-3.415c-2.099-4.219-9.565-14.509-7.175-28.727l3.763-17.284z" class="tertiary" opacity="1"/></g><path fill="#B26836" d="M-6.698 25.69c3.067-.395 6.664-1.26 10.662-2.933 8.458-3.539 13.89-11.905 13.89-21.073v-27.456a18.216 18.216 0 0 0-12.922 5.351A18.222 18.222 0 0 0-.419-7.499V2.527S-4.495 11.815-17.851 9.5l-.003 6.251c-.003 5.984 5.222 10.704 11.156 9.939z" class="tertiary" opacity=".5" style="mix-blend-mode:multiply" transform="translate(137.217 206.84)"/></g><g style="display:block"><path fill="#B26836" d="m212.168 272.984-14.798 15.315v73.724l2.839 9.442a3 3 0 0 1-2.873 3.864h-42.45a3 3 0 0 1-2.873-3.864l2.839-9.442V180.218l-8.063-18.739 59.519.75-8.938 17.989v82.102l11.978-4.116c1.986-.682 4.039.834 3.973 2.933l-.312 9.858a2.999 2.999 0 0 1-.841 1.989z" class="tertiary"/><g opacity=".5" style="mix-blend-mode:multiply"><path fill="#B26836" d="m165.744 375.33 4.108-13.666V179.858l-4.164-17.628-18.899-.75 8.063 18.738v181.805l-2.839 9.443a3 3 0 0 0 2.873 3.864h10.858z" class="tertiary" opacity="1"/></g><path fill="none" stroke="#3A3347" stroke-linecap="round" stroke-linejoin="round" stroke-width="7" d="m175.277 162.23-1.687 62.547c0 3.179 1.355 5.756 3.027 5.756 0 0 0 0 0 0 1.672 0 3.027 2.577 3.027 5.756v29.183m-.658 19.275v14.024" class="primary"/><path fill="#3A3347" d="M182.596 375.366c0-.013.004-.024.004-.037V333.87a3.5 3.5 0 1 0-7 0v41.459c0 .013.004.024.004.037h6.992z" class="primary"/><path fill="#2CA58D" d="M215.694 164.979h-79.253c-14.469 0-25.767-12.509-24.297-26.903l.257-2.513c2.845-27.869 26.316-49.066 54.33-49.066h18.673c28.014 0 51.485 21.197 54.33 49.066l.257 2.513c1.47 14.394-9.828 26.903-24.297 26.903z" class="quaternary"/><path fill="#2CA58D" d="m-15.728 12.338.257-2.513c2.845-27.87 26.316-49.066 54.33-49.066H20.732c-28.014 0-51.486 21.196-54.331 49.066l-.256 2.513c-1.47 14.394 9.827 26.903 24.296 26.903H8.569c-14.469 0-25.766-12.509-24.297-26.903z" class="quaternary" opacity=".5" style="mix-blend-mode:multiply" transform="translate(146 125.738)"/></g><path fill="none" stroke="#3A3347" stroke-linecap="round" stroke-linejoin="round" stroke-width="7" d="M492 193v25.5m0-25.5v25.5" class="primary" style="display:block"/></g><g clip-path="url(#c)" style="display:none"><g clip-path="url(#d)" style="display:none"><path class="secondary"/><path fill="none" class="primary"/><path fill="none" class="primary"/><path class="secondary"/><path class="secondary"/><path class="secondary" style="mix-blend-mode:multiply"/><path class="secondary"/><path class="secondary"/><path class="secondary" style="mix-blend-mode:multiply"/><path class="secondary" style="mix-blend-mode:multiply"/><path fill="none" class="secondary"/><path fill="none" class="secondary"/><path fill="none" class="secondary"/><path fill="none" class="secondary"/><path fill="none" class="primary"/><path fill="none" class="primary"/><path fill="none" class="primary"/><path fill="none" class="primary"/><path fill="none" class="primary"/><path fill="none" class="primary"/><path fill="none" class="primary"/><path fill="none" class="primary"/><path class="primary"/><path class="primary"/><path class="primary"/><path class="primary"/><path class="primary"/><path class="primary"/><path class="primary"/></g><g style="display:none"><path class="tertiary"/><path class="tertiary" style="mix-blend-mode:multiply"/><path class="tertiary" style="mix-blend-mode:multiply"/></g><g clip-path="url(#e)" style="display:none"><g style="display:none"><path class="tertiary"/><path class="tertiary" style="mix-blend-mode:multiply"/><path fill="none" class="primary"/><path fill="none" class="primary"/><path class="primary"/></g><g style="display:none"><path class="quaternary"/><path class="quaternary" style="mix-blend-mode:multiply"/></g></g><g style="display:none"><path class="tertiary"/><path class="tertiary" style="mix-blend-mode:multiply"/><path class="tertiary" style="mix-blend-mode:multiply"/></g></g></g></svg>